<svg xmlns="http://www.w3.org/2000/svg" width="970.477" height="970.477"><g fill="#fff"><path opacity=".7" d="M842.849 970.477c26.601 0 53.5-8.8 75.7-27 51.4-41.9 59.101-117.4 17.2-168.8l-234.6-288 237-290.9c41.899-51.399 34.1-127-17.2-168.8-51.4-41.899-127-34.1-168.8 17.2l-298.8 366.7c-36 44.1-36 107.399 0 151.6l296.4 363.9c23.701 29 58.3 44.1 93.1 44.1z"/><path opacity=".7" d="M328.85 926.276c23.7 29.101 58.301 44.2 93.101 44.2 26.6 0 53.5-8.8 75.7-27 51.399-41.9 59.1-117.4 17.199-168.8l-234.599-288 237-290.9c41.9-51.399 34.1-127-17.2-168.8-51.399-41.899-127-34.1-168.799 17.2l-298.9 366.7c-36 44.1-36 107.5 0 151.6l296.498 363.8z"/></g></svg>